<?xml version="1.0" encoding="UTF-8" ?>
<!DOCTYPE svg PUBLIC "-//W3C//DTD SVG 1.1//EN" "http://www.w3.org/Graphics/SVG/1.1/DTD/svg11.dtd">
<svg width="1333pt" height="750pt" viewBox="0 0 1333 750" version="1.1" xmlns="http://www.w3.org/2000/svg">
<path fill="#fffefe" d=" M 0.00 0.00 L 1333.00 0.00 L 1333.00 750.00 L 0.00 750.00 L 0.00 0.00 Z" />
<path fill="#030303" d=" M 505.17 70.32 C 520.34 68.27 536.11 71.94 549.11 79.96 C 561.86 87.71 571.84 99.86 577.11 113.81 C 582.08 126.47 582.83 140.63 579.75 153.83 C 576.14 168.37 567.81 181.77 556.05 191.10 C 542.96 201.67 525.84 207.21 509.04 206.05 C 490.65 204.89 472.91 195.88 461.15 181.69 C 451.03 169.55 445.06 153.83 445.30 137.98 C 445.08 123.51 450.04 109.16 458.56 97.54 C 469.49 82.60 486.78 72.45 505.17 70.32 Z" />
<path fill="#e62d32" d=" M 605.39 75.98 C 606.88 77.00 608.19 78.24 609.44 79.55 C 665.50 135.50 721.93 191.08 778.03 246.99 C 787.92 256.59 797.38 266.66 807.54 275.96 C 807.76 246.68 808.04 217.39 808.49 188.11 C 836.12 216.28 863.78 244.44 891.50 272.52 C 891.59 327.01 891.39 381.49 891.60 435.97 C 889.76 435.50 888.63 433.91 887.35 432.66 C 840.07 385.11 792.62 337.72 745.35 290.17 C 749.16 281.59 748.77 271.17 743.89 263.09 C 738.68 254.07 728.38 248.32 717.97 248.57 C 707.92 248.67 698.21 254.39 693.12 263.03 C 688.34 271.11 687.77 281.57 691.60 290.13 C 696.34 301.03 708.15 308.32 720.04 307.56 C 723.86 307.52 727.40 305.99 731.04 305.00 C 732.93 305.49 734.01 307.42 735.44 308.65 C 785.16 358.56 834.82 408.52 884.57 458.40 C 886.78 460.79 889.34 462.86 891.40 465.40 C 891.69 478.91 891.40 492.46 891.54 505.98 C 888.95 504.44 887.11 501.98 884.94 499.94 C 804.26 419.68 723.57 339.44 643.16 258.90 C 646.12 252.05 646.75 244.09 644.11 237.04 C 641.09 228.11 633.47 220.94 624.40 218.40 C 618.16 216.38 611.52 217.43 605.31 218.94 C 605.45 171.29 605.29 123.63 605.39 75.98 Z" />
<path fill="#030303" d=" M 611.42 232.70 C 619.44 229.60 629.22 235.11 630.82 243.54 C 633.10 252.16 625.87 261.55 616.97 261.65 C 608.54 262.31 600.77 254.50 601.41 246.07 C 601.58 240.11 605.75 234.55 611.42 232.70 Z" />
<path fill="#030303" d=" M 445.75 233.80 C 457.78 233.20 469.87 233.71 481.92 233.54 C 517.85 233.53 553.78 233.55 589.71 233.53 C 587.57 239.10 585.91 245.18 587.13 251.16 C 588.63 262.04 596.79 271.59 607.25 274.86 C 614.40 277.34 622.37 276.54 629.16 273.33 C 708.01 351.98 786.72 430.78 865.52 509.49 C 868.96 512.84 872.21 516.39 875.83 519.56 C 861.22 519.89 846.57 519.84 831.98 519.53 C 769.32 519.93 706.64 519.66 643.98 519.75 C 642.62 519.96 641.45 519.36 640.61 518.35 C 614.16 492.12 587.58 466.01 560.98 439.93 C 559.95 438.91 558.91 437.87 558.08 436.69 C 587.19 436.21 616.33 436.52 645.43 435.77 C 637.15 426.66 628.11 418.23 619.54 409.38 C 564.22 353.35 508.59 297.62 453.23 241.62 C 450.75 239.00 448.00 236.63 445.75 233.80 Z" />
<path fill="#e62d32" d=" M 714.46 263.68 C 722.06 261.37 730.71 266.26 732.80 273.86 C 734.83 280.28 731.79 287.84 725.86 291.03 C 718.79 295.26 708.55 292.27 705.13 284.68 C 700.80 276.71 705.81 265.95 714.46 263.68 Z" />
<path fill="#fffefe" d=" M 636.18 321.01 C 644.83 316.82 655.57 317.22 663.86 322.10 C 671.68 326.63 677.13 334.92 678.28 343.87 C 679.18 349.38 677.67 354.74 676.02 359.93 C 725.81 409.80 775.59 459.70 825.32 509.64 C 828.28 512.56 831.11 515.63 834.26 518.37 C 833.11 520.14 830.72 519.23 829.00 519.50 C 821.66 519.32 814.31 519.58 806.98 519.39 C 804.14 517.51 802.07 514.72 799.59 512.42 C 782.16 494.82 764.47 477.45 747.24 459.67 C 718.67 431.36 690.42 402.70 662.02 374.22 C 654.02 377.81 644.52 378.25 636.55 374.36 C 624.54 368.99 617.22 354.91 620.01 342.01 C 621.71 332.98 627.88 324.96 636.18 321.01 Z" />
<path fill="#030303" d=" M 646.92 332.82 C 655.61 331.31 664.46 339.18 663.79 348.02 C 664.07 357.67 653.09 365.25 644.13 361.70 C 635.46 359.05 631.44 347.90 636.05 340.19 C 638.38 336.30 642.41 333.49 646.92 332.82 Z" />
<path fill="#e62d32" d=" M 559.05 571.43 C 574.68 567.43 591.79 570.68 605.49 578.99 C 602.99 584.68 600.49 590.46 597.30 595.80 C 588.37 590.85 578.34 586.53 567.93 587.33 C 564.83 587.39 561.52 589.64 561.45 592.97 C 561.20 596.99 565.11 599.34 568.33 600.70 C 577.85 604.52 588.60 605.64 597.05 611.87 C 602.91 615.83 606.23 622.99 605.77 630.03 C 606.11 637.52 602.13 644.82 596.00 649.03 C 588.48 654.29 578.96 655.85 569.95 655.48 C 557.85 655.01 545.97 650.83 536.07 643.89 C 535.28 643.20 533.61 642.49 534.29 641.19 C 536.52 636.07 539.48 631.28 541.61 626.10 C 543.93 626.50 545.48 628.43 547.43 629.58 C 554.77 634.29 563.16 637.71 571.95 638.19 C 574.86 638.24 577.93 637.81 580.49 636.32 C 583.77 634.30 584.33 629.16 581.56 626.49 C 578.13 623.24 573.34 622.13 568.95 620.81 C 560.72 618.49 551.89 616.52 545.33 610.66 C 538.46 604.60 537.38 594.01 540.74 585.85 C 543.93 578.32 551.36 573.44 559.05 571.43 Z" />
<path fill="#e62d32" d=" M 843.20 575.15 C 850.06 574.94 856.92 575.00 863.79 575.17 C 863.79 581.04 863.66 586.92 863.85 592.80 C 869.48 593.00 875.13 592.52 880.74 593.12 C 880.68 597.62 880.73 602.13 880.68 606.64 C 875.07 606.68 869.46 606.51 863.85 606.72 C 863.66 614.80 863.79 622.89 863.77 630.98 C 863.91 633.59 863.93 636.99 866.60 638.41 C 870.37 639.79 874.28 638.12 877.93 637.10 C 879.26 641.90 880.89 646.64 881.81 651.55 C 874.13 655.44 864.98 657.02 856.61 654.66 C 849.48 652.70 843.95 646.13 843.39 638.74 C 842.76 628.20 843.74 617.56 842.90 607.08 C 840.23 606.01 837.11 606.87 834.28 606.67 C 834.14 602.17 834.23 597.66 834.19 593.16 C 837.14 593.16 840.11 593.10 843.07 592.91 C 843.38 587.00 843.13 581.07 843.20 575.15 Z" />
<path fill="#e62d32" d=" M 713.97 593.82 C 720.08 589.24 728.16 588.44 735.51 589.69 C 741.70 591.04 747.40 595.10 750.18 600.88 C 754.08 608.28 753.08 616.92 753.21 624.98 C 753.11 634.92 753.44 644.87 753.04 654.79 C 746.16 654.78 739.27 654.92 732.40 654.72 C 732.45 643.14 732.42 631.56 732.42 619.98 C 732.55 615.71 730.79 611.20 726.98 608.98 C 722.06 606.34 715.34 607.32 711.58 611.53 C 708.82 614.66 707.73 618.94 707.75 623.05 C 707.76 633.62 707.77 644.20 707.75 654.78 C 700.89 654.85 694.04 654.80 687.19 654.82 C 686.28 642.91 687.26 630.94 686.86 619.02 C 687.38 613.01 686.45 607.00 686.94 601.00 C 687.39 597.40 686.61 593.79 687.09 590.20 C 693.88 590.06 700.67 590.33 707.45 590.04 C 708.11 593.29 707.66 596.62 707.69 599.91 C 709.96 598.07 711.48 595.44 713.97 593.82 Z" />
<path fill="#e62d32" d=" M 788.90 589.91 C 799.49 588.32 811.50 589.79 819.53 597.52 C 827.56 605.29 829.57 617.18 828.83 627.90 C 817.23 628.54 805.58 628.00 793.96 628.18 C 790.41 628.37 786.76 627.67 783.29 628.63 C 785.01 632.89 787.73 637.10 792.22 638.80 C 799.74 641.54 808.40 639.07 814.03 633.56 C 817.91 636.78 821.30 640.54 824.95 644.00 C 819.73 650.21 811.88 653.75 803.98 655.01 C 792.47 656.77 779.53 654.48 771.11 645.92 C 761.39 635.71 760.04 619.36 765.82 606.86 C 769.98 597.70 779.15 591.60 788.90 589.91 Z" />
<path fill="#e62d32" d=" M 607.98 590.17 C 614.97 590.07 621.97 590.19 628.97 590.14 C 634.51 604.34 639.47 618.77 644.97 633.00 C 649.47 618.67 654.17 604.39 658.96 590.15 C 665.67 590.17 672.37 590.20 679.07 590.14 C 678.76 592.94 677.48 595.49 676.46 598.09 C 668.79 617.78 661.04 637.43 653.37 657.12 C 650.87 664.00 647.51 671.14 641.10 675.19 C 630.97 681.48 617.22 679.99 607.97 672.74 C 610.31 667.68 613.42 662.93 616.64 658.38 C 619.81 661.14 624.25 662.64 628.37 661.23 C 631.67 659.78 633.26 656.26 634.51 653.12 C 626.07 633.89 618.08 614.45 609.74 595.17 C 609.04 593.54 608.40 591.89 607.98 590.17 Z" />
<path fill="#fffefe" d=" M 789.93 605.55 C 794.34 602.84 800.39 603.22 804.44 606.43 C 807.51 608.90 808.82 612.89 808.90 616.72 C 800.29 616.76 791.68 616.75 783.07 616.73 C 783.81 612.33 785.99 607.89 789.93 605.55 Z" />
</svg>
