<?xml version="1.0" encoding="utf-8"?>
<!-- Generator: Adobe Illustrator 19.2.1, SVG Export Plug-In . SVG Version: 6.00 Build 0)  -->
<svg version="1.1" xmlns="http://www.w3.org/2000/svg" xmlns:xlink="http://www.w3.org/1999/xlink" x="0px" y="0px"
	 viewBox="0 0 500 250" style="enable-background:new 0 0 500 250;" xml:space="preserve">
<style type="text/css">
	.st0{fill:#E7262B;}
</style>
<g id="Layer_2">
</g>
<g id="Layer_1">
	<g>
		<polygon class="st0" points="0.8,0.5 0.8,12.3 5.1,0.5 		"/>
		<polygon class="st0" points="9.9,0.5 0.8,25.6 0.8,37.4 14.1,0.5 		"/>
		<polygon class="st0" points="18.9,0.5 0.8,50.7 0.8,62.5 23.2,0.5 		"/>
		<polygon class="st0" points="27.9,0.5 0.8,75.8 0.8,87.6 32.2,0.5 		"/>
		<polygon class="st0" points="37,0.5 0.8,100.9 0.8,112.7 41.2,0.5 		"/>
		<polygon class="st0" points="46,0.5 0.8,126 0.8,137.8 50.3,0.5 		"/>
		<polygon class="st0" points="55,0.5 0.8,151.1 0.8,162.9 59.3,0.5 		"/>
		<polygon class="st0" points="64.1,0.5 0.8,176.2 0.8,188 68.3,0.5 		"/>
		<polygon class="st0" points="73.1,0.5 0.8,201.3 0.8,213.1 77.4,0.5 		"/>
		<polygon class="st0" points="82.1,0.5 0.8,226.4 0.8,238.2 86.4,0.5 		"/>
		<polygon class="st0" points="91.2,0.5 1.2,250.5 5.4,250.5 95.4,0.5 		"/>
		<polygon class="st0" points="100.2,0.5 10.2,250.5 14.5,250.5 104.5,0.5 		"/>
		<polygon class="st0" points="109.2,0.5 19.3,250.5 23.5,250.5 113.5,0.5 		"/>
		<polygon class="st0" points="118.3,0.5 28.3,250.5 32.5,250.5 122.5,0.5 		"/>
		<polygon class="st0" points="127.3,0.5 37.3,250.5 41.6,250.5 131.6,0.5 		"/>
		<polygon class="st0" points="136.3,0.5 46.4,250.5 50.6,250.5 140.6,0.5 		"/>
		<polygon class="st0" points="145.4,0.5 55.4,250.5 59.6,250.5 149.6,0.5 		"/>
		<polygon class="st0" points="154.4,0.5 64.4,250.5 68.7,250.5 158.7,0.5 		"/>
		<polygon class="st0" points="163.4,0.5 73.5,250.5 77.7,250.5 167.7,0.5 		"/>
		<polygon class="st0" points="172.5,0.5 82.5,250.5 86.7,250.5 176.7,0.5 		"/>
		<polygon class="st0" points="181.5,0.5 91.5,250.5 95.8,250.5 185.8,0.5 		"/>
		<polygon class="st0" points="190.6,0.5 100.6,250.5 104.8,250.5 194.8,0.5 		"/>
		<polygon class="st0" points="199.6,0.5 109.6,250.5 113.8,250.5 203.8,0.5 		"/>
		<polygon class="st0" points="208.6,0.5 118.6,250.5 122.9,250.5 212.9,0.5 		"/>
		<polygon class="st0" points="217.7,0.5 127.7,250.5 131.9,250.5 221.9,0.5 		"/>
		<polygon class="st0" points="226.7,0.5 136.7,250.5 140.9,250.5 230.9,0.5 		"/>
		<polygon class="st0" points="235.7,0.5 145.7,250.5 150,250.5 240,0.5 		"/>
		<polygon class="st0" points="244.8,0.5 154.8,250.5 159,250.5 249,0.5 		"/>
		<polygon class="st0" points="253.8,0.5 163.8,250.5 168,250.5 258,0.5 		"/>
		<polygon class="st0" points="262.8,0.5 172.8,250.5 177.1,250.5 267.1,0.5 		"/>
		<polygon class="st0" points="271.9,0.5 181.9,250.5 186.1,250.5 276.1,0.5 		"/>
		<polygon class="st0" points="280.9,0.5 190.9,250.5 195.2,250.5 285.1,0.5 		"/>
		<polygon class="st0" points="289.9,0.5 199.9,250.5 204.2,250.5 294.2,0.5 		"/>
		<polygon class="st0" points="299,0.5 209,250.5 213.2,250.5 303.2,0.5 		"/>
		<polygon class="st0" points="308,0.5 218,250.5 222.3,250.5 312.2,0.5 		"/>
		<polygon class="st0" points="317,0.5 227,250.5 231.3,250.5 321.3,0.5 		"/>
		<polygon class="st0" points="326.1,0.5 236.1,250.5 240.3,250.5 330.3,0.5 		"/>
		<polygon class="st0" points="335.1,0.5 245.1,250.5 249.4,250.5 339.3,0.5 		"/>
		<polygon class="st0" points="344.1,0.5 254.1,250.5 258.4,250.5 348.4,0.5 		"/>
		<polygon class="st0" points="353.2,0.5 263.2,250.5 267.4,250.5 357.4,0.5 		"/>
		<polygon class="st0" points="362.2,0.5 272.2,250.5 276.5,250.5 366.4,0.5 		"/>
		<polygon class="st0" points="371.2,0.5 281.2,250.5 285.5,250.5 375.5,0.5 		"/>
		<polygon class="st0" points="380.3,0.5 290.3,250.5 294.5,250.5 384.5,0.5 		"/>
		<polygon class="st0" points="389.3,0.5 299.3,250.5 303.6,250.5 393.5,0.5 		"/>
		<polygon class="st0" points="398.3,0.5 308.3,250.5 312.6,250.5 402.6,0.5 		"/>
		<polygon class="st0" points="407.4,0.5 317.4,250.5 321.6,250.5 411.6,0.5 		"/>
		<polygon class="st0" points="416.4,0.5 326.4,250.5 330.7,250.5 420.6,0.5 		"/>
		<polygon class="st0" points="425.4,0.5 335.4,250.5 339.7,250.5 429.7,0.5 		"/>
		<polygon class="st0" points="434.5,0.5 344.5,250.5 348.7,250.5 438.7,0.5 		"/>
		<polygon class="st0" points="443.5,0.5 353.5,250.5 357.8,250.5 447.8,0.5 		"/>
		<polygon class="st0" points="452.5,0.5 362.5,250.5 366.8,250.5 456.8,0.5 		"/>
		<polygon class="st0" points="461.6,0.5 371.6,250.5 375.8,250.5 465.8,0.5 		"/>
		<polygon class="st0" points="470.6,0.5 380.6,250.5 384.9,250.5 474.9,0.5 		"/>
		<polygon class="st0" points="479.6,0.5 389.6,250.5 393.9,250.5 483.9,0.5 		"/>
		<polygon class="st0" points="488.7,0.5 398.7,250.5 402.9,250.5 492.9,0.5 		"/>
		<polygon class="st0" points="497.7,0.5 407.7,250.5 412,250.5 502,0.5 		"/>
		<polygon class="st0" points="416.7,250.5 421,250.5 503.9,20.2 503.9,8.4 		"/>
		<polygon class="st0" points="430,250.5 503.9,45.3 503.9,33.5 425.8,250.5 		"/>
		<polygon class="st0" points="439.1,250.5 503.9,70.4 503.9,58.6 434.8,250.5 		"/>
		<polygon class="st0" points="448.1,250.5 503.9,95.5 503.9,83.7 443.8,250.5 		"/>
		<polygon class="st0" points="457.1,250.5 503.9,120.6 503.9,108.8 452.9,250.5 		"/>
		<polygon class="st0" points="466.2,250.5 503.9,145.7 503.9,133.9 461.9,250.5 		"/>
		<polygon class="st0" points="475.2,250.5 503.9,170.8 503.9,159 471,250.5 		"/>
		<polygon class="st0" points="484.2,250.5 503.9,195.9 503.9,184.1 480,250.5 		"/>
		<polygon class="st0" points="493.3,250.5 503.9,221 503.9,209.2 489,250.5 		"/>
		<polygon class="st0" points="502.3,250.5 503.9,246.1 503.9,234.3 498.1,250.5 		"/>
	</g>
</g>
</svg>
